solid MacroPad_Top_v3.stl
  facet normal 0.422886 -2.04891e-08 0.906183
    outer loop
      vertex 97.296 136.2 46.4231
      vertex 97.296 139.8 46.4231
      vertex 78.5646 136.2 55.1644
    endloop
  endfacet
  facet normal 0.422886 -2.04891e-08 0.906183
    outer loop
      vertex 78.5646 136.2 55.1644
      vertex 97.296 139.8 46.4231
      vertex 78.5646 139.8 55.1644
    endloop
  endfacet
  facet normal 0.422886 -2.04891e-08 0.906183
    outer loop
      vertex 78.5646 73.3 55.1644
      vertex 78.5646 70.2 55.1644
      vertex 97.296 73.3 46.4231
    endloop
  endfacet
  facet normal 0.422886 -2.04891e-08 0.906183
    outer loop
      vertex 97.296 73.3 46.4231
      vertex 78.5646 70.2 55.1644
      vertex 97.296 70.2 46.4231
    endloop
  endfacet
  facet normal 0 -1 -2.23517e-08
    outer loop
      vertex 94.3358 73.3 39.528
      vertex 94.3358 73.3 36.7692
      vertex 95.393 73.3 39.0347
    endloop
  endfacet
  facet normal 0.906183 9.77889e-09 -0.422886
    outer loop
      vertex 94.3358 73.3 36.7692
      vertex 94.3358 82.5 36.7692
      vertex 95.393 73.3 39.0347
    endloop
  endfacet
  facet normal 0.906183 9.77889e-09 -0.422886
    outer loop
      vertex 95.393 73.3 39.0347
      vertex 94.3358 82.5 36.7692
      vertex 95.393 82.5 39.0347
    endloop
  endfacet
  facet normal 0.422885 -2.04891e-08 0.906183
    outer loop
      vertex 95.393 73.3 39.0347
      vertex 95.393 82.5 39.0347
      vertex 94.3358 73.3 39.528
    endloop
  endfacet
  facet normal 0.422886 -9.12696e-08 0.906183
    outer loop
      vertex 94.3358 73.3 39.528
      vertex 95.393 82.5 39.0347
      vertex 75.393 82.5 48.368
    endloop
  endfacet
  facet normal 0.422886 -1.86265e-08 0.906183
    outer loop
      vertex 94.3358 73.3 39.528
      vertex 75.393 82.5 48.368
      vertex 75.393 73.3 48.368
    endloop
  endfacet
  facet normal 0 1 2.23517e-08
    outer loop
      vertex 94.3358 136.2 36.7692
      vertex 94.3358 136.2 39.528
      vertex 95.393 136.2 39.0347
    endloop
  endfacet
  facet normal 0.906183 9.77889e-09 -0.422886
    outer loop
      vertex 94.3358 127.5 36.7692
      vertex 94.3358 136.2 36.7692
      vertex 95.393 127.5 39.0347
    endloop
  endfacet
  facet normal 0.906183 9.77889e-09 -0.422886
    outer loop
      vertex 95.393 127.5 39.0347
      vertex 94.3358 136.2 36.7692
      vertex 95.393 136.2 39.0347
    endloop
  endfacet
  facet normal 0.422886 -2.04891e-08 0.906183
    outer loop
      vertex 75.393 136.2 48.368
      vertex 75.393 127.5 48.368
      vertex 94.3358 136.2 39.528
    endloop
  endfacet
  facet normal 0.422886 5.40167e-08 0.906183
    outer loop
      vertex 94.3358 136.2 39.528
      vertex 75.393 127.5 48.368
      vertex 95.393 127.5 39.0347
    endloop
  endfacet
  facet normal 0.422885 -2.04891e-08 0.906183
    outer loop
      vertex 94.3358 136.2 39.528
      vertex 95.393 127.5 39.0347
      vertex 95.393 136.2 39.0347
    endloop
  endfacet
  facet normal 0 -1 -2.23517e-08
    outer loop
      vertex 94.3358 136.2 39.528
      vertex 94.3358 136.2 40.0798
      vertex 75.393 136.2 48.368
    endloop
  endfacet
  facet normal 0 -1 -2.23517e-08
    outer loop
      vertex 75.393 136.2 48.368
      vertex 94.3358 136.2 40.0798
      vertex 97.296 136.2 46.4231
    endloop
  endfacet
  facet normal 0 -1 -2.23517e-08
    outer loop
      vertex 75.393 136.2 48.368
      vertex 97.296 136.2 46.4231
      vertex 78.5646 136.2 55.1644
    endloop
  endfacet
  facet normal 0 -1 -2.23517e-08
    outer loop
      vertex 132.82 136.2 25.4312
      vertex 131.551 136.2 22.7127
      vertex 172.946 136.2 6.70575
    endloop
  endfacet
  facet normal 0 -1 -2.23517e-08
    outer loop
      vertex 172.946 136.2 6.70575
      vertex 131.551 136.2 22.7127
      vertex 131.551 136.2 19.4021
    endloop
  endfacet
  facet normal 0 -1 -2.23517e-08
    outer loop
      vertex 172.946 136.2 6.70575
      vertex 131.551 136.2 19.4021
      vertex 170.408 136.2 1.26865
    endloop
  endfacet
  facet normal -1 0 0
    outer loop
      vertex 131.551 127.5 19.4021
      vertex 131.551 136.2 19.4021
      vertex 131.551 127.5 2.00043
    endloop
  endfacet
  facet normal -1 0 0
    outer loop
      vertex 131.551 127.5 2.00043
      vertex 131.551 136.2 19.4021
      vertex 131.551 139.8 1.94376
    endloop
  endfacet
  facet normal -1 0 0
    outer loop
      vertex 131.551 127.5 2.00043
      vertex 131.551 139.8 1.94376
      vertex 131.551 70.2 1.94376
    endloop
  endfacet
  facet normal -1 0 0
    outer loop
      vertex 131.551 136.2 22.7127
      vertex 131.551 139.8 22.7127
      vertex 131.551 136.2 19.4021
    endloop
  endfacet
  facet normal -1 0 0
    outer loop
      vertex 131.551 136.2 19.4021
      vertex 131.551 139.8 22.7127
      vertex 131.551 139.8 1.94376
    endloop
  endfacet
  facet normal -1 0 0
    outer loop
      vertex 131.551 70.2 22.7127
      vertex 131.551 73.3 19.4021
      vertex 131.551 70.2 1.94376
    endloop
  endfacet
  facet normal -1 0 0
    outer loop
      vertex 131.551 70.2 1.94376
      vertex 131.551 73.3 19.4021
      vertex 131.551 82.5 2.00043
    endloop
  endfacet
  facet normal -1 0 0
    outer loop
      vertex 131.551 70.2 1.94376
      vertex 131.551 82.5 2.00043
      vertex 131.551 127.5 2.00043
    endloop
  endfacet
  facet normal -1 0 0
    outer loop
      vertex 131.551 70.2 22.7127
      vertex 131.551 73.3 22.7127
      vertex 131.551 73.3 19.4021
    endloop
  endfacet
  facet normal -1 0 0
    outer loop
      vertex 131.551 73.3 19.4021
      vertex 131.551 82.5 19.4021
      vertex 131.551 82.5 2.00043
    endloop
  endfacet
  facet normal 0.906183 9.77889e-09 -0.422886
    outer loop
      vertex 94.3358 136.2 40.0798
      vertex 94.3358 139.8 40.0798
      vertex 97.296 136.2 46.4231
    endloop
  endfacet
  facet normal 0.906183 9.77889e-09 -0.422886
    outer loop
      vertex 97.296 136.2 46.4231
      vertex 94.3358 139.8 40.0798
      vertex 97.296 139.8 46.4231
    endloop
  endfacet
  facet normal 1 0 0
    outer loop
      vertex 94.3358 136.2 40.0798
      vertex 94.3358 136.2 39.528
      vertex 94.3358 139.8 40.0798
    endloop
  endfacet
  facet normal 1 0 0
    outer loop
      vertex 94.3358 139.8 40.0798
      vertex 94.3358 136.2 39.528
      vertex 94.3358 136.2 36.7692
    endloop
  endfacet
  facet normal 1 0 0
    outer loop
      vertex 94.3358 139.8 40.0798
      vertex 94.3358 136.2 36.7692
      vertex 94.3358 139.8 1.98429
    endloop
  endfacet
  facet normal 1 0 0
    outer loop
      vertex 94.3358 139.8 1.98429
      vertex 94.3358 136.2 36.7692
      vertex 94.3358 127.5 2.00043
    endloop
  endfacet
  facet normal 1 0 0
    outer loop
      vertex 94.3358 139.8 1.98429
      vertex 94.3358 127.5 2.00043
      vertex 94.3358 82.5 2.00043
    endloop
  endfacet
  facet normal 1 0 0
    outer loop
      vertex 94.3358 136.2 36.7692
      vertex 94.3358 127.5 36.7692
      vertex 94.3358 127.5 2.00043
    endloop
  endfacet
  facet normal 1 0 0
    outer loop
      vertex 94.3358 82.5 36.7692
      vertex 94.3358 73.3 36.7692
      vertex 94.3358 82.5 2.00043
    endloop
  endfacet
  facet normal 1 0 0
    outer loop
      vertex 94.3358 82.5 2.00043
      vertex 94.3358 73.3 36.7692
      vertex 94.3358 70.2 1.98428
    endloop
  endfacet
  facet normal 1 0 0
    outer loop
      vertex 94.3358 82.5 2.00043
      vertex 94.3358 70.2 1.98428
      vertex 94.3358 139.8 1.98429
    endloop
  endfacet
  facet normal 1 0 0
    outer loop
      vertex 94.3358 70.2 1.98428
      vertex 94.3358 73.3 36.7692
      vertex 94.3358 70.2 40.0798
    endloop
  endfacet
  facet normal 1 0 0
    outer loop
      vertex 94.3358 70.2 40.0798
      vertex 94.3358 73.3 36.7692
      vertex 94.3358 73.3 39.528
    endloop
  endfacet
  facet normal 1 0 0
    outer loop
      vertex 94.3358 70.2 40.0798
      vertex 94.3358 73.3 39.528
      vertex 94.3358 73.3 40.0798
    endloop
  endfacet
  facet normal 0 1 2.23517e-08
    outer loop
      vertex 94.3358 73.3 39.528
      vertex 75.393 73.3 48.368
      vertex 94.3358 73.3 40.0798
    endloop
  endfacet
  facet normal 0 1 2.23517e-08
    outer loop
      vertex 94.3358 73.3 40.0798
      vertex 75.393 73.3 48.368
      vertex 97.296 73.3 46.4231
    endloop
  endfacet
  facet normal 0 1 2.23517e-08
    outer loop
      vertex 97.296 73.3 46.4231
      vertex 75.393 73.3 48.368
      vertex 78.5646 73.3 55.1644
    endloop
  endfacet
  facet normal 0 1 2.23517e-08
    outer loop
      vertex 170.408 73.3 1.26865
      vertex 131.551 73.3 19.4021
      vertex 172.946 73.3 6.70575
    endloop
  endfacet
  facet normal 0 1 2.23517e-08
    outer loop
      vertex 172.946 73.3 6.70575
      vertex 131.551 73.3 19.4021
      vertex 131.551 73.3 22.7127
    endloop
  endfacet
  facet normal 0 1 2.23517e-08
    outer loop
      vertex 172.946 73.3 6.70575
      vertex 131.551 73.3 22.7127
      vertex 132.82 73.3 25.4312
    endloop
  endfacet
  facet normal 0.422886 -2.04891e-08 0.906183
    outer loop
      vertex 172.946 73.3 6.70575
      vertex 175.664 70.2 5.43709
      vertex 172.946 136.2 6.70575
    endloop
  endfacet
  facet normal 0.422886 -2.04891e-08 0.906183
    outer loop
      vertex 172.946 136.2 6.70575
      vertex 175.664 70.2 5.43709
      vertex 175.664 139.798 5.4371
    endloop
  endfacet
  facet normal 0.422886 -2.04891e-08 0.906183
    outer loop
      vertex 172.946 136.2 6.70575
      vertex 175.664 139.798 5.4371
      vertex 172.946 139.798 6.70576
    endloop
  endfacet
  facet normal 0.422885 -2.04891e-08 0.906183
    outer loop
      vertex 132.82 73.3 25.4312
      vertex 132.82 70.2 25.4312
      vertex 172.946 73.3 6.70575
    endloop
  endfacet
  facet normal 0.422885 -5.92321e-07 0.906183
    outer loop
      vertex 172.946 73.3 6.70575
      vertex 132.82 70.2 25.4312
      vertex 175.664 70.2 5.43709
    endloop
  endfacet
  facet normal 0.422885 -2.04891e-08 0.906183
    outer loop
      vertex 172.946 139.8 6.70576
      vertex 132.82 139.8 25.4312
      vertex 172.946 139.798 6.70576
    endloop
  endfacet
  facet normal 0.422885 -2.23517e-08 0.906183
    outer loop
      vertex 172.946 139.798 6.70576
      vertex 132.82 139.8 25.4312
      vertex 132.82 136.2 25.4312
    endloop
  endfacet
  facet normal 0.422885 -2.04891e-08 0.906183
    outer loop
      vertex 172.946 139.798 6.70576
      vertex 132.82 136.2 25.4312
      vertex 172.946 136.2 6.70575
    endloop
  endfacet
  facet normal -0.906183 -9.77889e-09 0.422886
    outer loop
      vertex 131.551 73.3 22.7127
      vertex 131.551 70.2 22.7127
      vertex 132.82 73.3 25.4312
    endloop
  endfacet
  facet normal -0.906183 -9.77889e-09 0.422886
    outer loop
      vertex 132.82 73.3 25.4312
      vertex 131.551 70.2 22.7127
      vertex 132.82 70.2 25.4312
    endloop
  endfacet
  facet normal 0.906183 9.77889e-09 -0.422886
    outer loop
      vertex 97.296 73.3 46.4231
      vertex 97.296 70.2 46.4231
      vertex 94.3358 73.3 40.0798
    endloop
  endfacet
  facet normal 0.906183 9.77889e-09 -0.422886
    outer loop
      vertex 94.3358 73.3 40.0798
      vertex 97.296 70.2 46.4231
      vertex 94.3358 70.2 40.0798
    endloop
  endfacet
  facet normal -0.906183 -9.77889e-09 0.422886
    outer loop
      vertex 170.408 136.2 1.26865
      vertex 170.408 73.3 1.26865
      vertex 172.946 136.2 6.70575
    endloop
  endfacet
  facet normal -0.906183 -9.77889e-09 0.422886
    outer loop
      vertex 172.946 136.2 6.70575
      vertex 170.408 73.3 1.26865
      vertex 172.946 73.3 6.70575
    endloop
  endfacet
  facet normal 0.422885 -2.04891e-08 0.906183
    outer loop
      vertex 131.551 127.5 19.4021
      vertex 165.967 127.5 3.34118
      vertex 131.551 136.2 19.4021
    endloop
  endfacet
  facet normal 0.422886 3.07336e-07 0.906183
    outer loop
      vertex 131.551 136.2 19.4021
      vertex 165.967 127.5 3.34118
      vertex 170.408 136.2 1.26865
    endloop
  endfacet
  facet normal 0.422886 -1.86264e-08 0.906183
    outer loop
      vertex 170.408 136.2 1.26865
      vertex 165.967 127.5 3.34118
      vertex 165.967 82.5 3.34119
    endloop
  endfacet
  facet normal 0.422886 -2.04891e-08 0.906183
    outer loop
      vertex 170.408 136.2 1.26865
      vertex 165.967 82.5 3.34119
      vertex 170.408 73.3 1.26865
    endloop
  endfacet
  facet normal 0.422885 -7.82311e-08 0.906183
    outer loop
      vertex 170.408 73.3 1.26865
      vertex 165.967 82.5 3.34119
      vertex 131.551 73.3 19.4021
    endloop
  endfacet
  facet normal 0.422885 -2.04891e-08 0.906183
    outer loop
      vertex 131.551 73.3 19.4021
      vertex 165.967 82.5 3.34119
      vertex 131.551 82.5 19.4021
    endloop
  endfacet
  facet normal 0 -1 -2.23517e-08
    outer loop
      vertex 131.551 127.5 19.4021
      vertex 131.551 127.5 2.00043
      vertex 165.967 127.5 3.34118
    endloop
  endfacet
  facet normal 0 -1 -2.23517e-08
    outer loop
      vertex 165.967 127.5 3.34118
      vertex 131.551 127.5 2.00043
      vertex 164.111 127.5 2.00043
    endloop
  endfacet
  facet normal 0 -1 -2.23517e-08
    outer loop
      vertex 165.967 127.5 3.34118
      vertex 164.111 127.5 2.00043
      vertex 165.121 127.5 1.52881
    endloop
  endfacet
  facet normal -0.906183 -9.77889e-09 0.422886
    outer loop
      vertex 165.121 127.5 1.52881
      vertex 165.121 82.5 1.52882
      vertex 165.967 127.5 3.34118
    endloop
  endfacet
  facet normal -0.906183 -9.77889e-09 0.422886
    outer loop
      vertex 165.967 127.5 3.34118
      vertex 165.121 82.5 1.52882
      vertex 165.967 82.5 3.34119
    endloop
  endfacet
  facet normal 0.422886 -1.86265e-08 0.906183
    outer loop
      vertex 164.111 127.5 2.00043
      vertex 164.111 82.5 2.00043
      vertex 165.121 127.5 1.52881
    endloop
  endfacet
  facet normal 0.422886 -1.86265e-08 0.906183
    outer loop
      vertex 165.121 127.5 1.52881
      vertex 164.111 82.5 2.00043
      vertex 165.121 82.5 1.52882
    endloop
  endfacet
  facet normal 0 -2.23517e-08 1
    outer loop
      vertex 164.111 127.5 2.00043
      vertex 131.551 127.5 2.00043
      vertex 164.111 82.5 2.00043
    endloop
  endfacet
  facet normal 0 -2.23517e-08 1
    outer loop
      vertex 164.111 82.5 2.00043
      vertex 131.551 127.5 2.00043
      vertex 131.551 82.5 2.00043
    endloop
  endfacet
  facet normal 0 -1 -2.23517e-08
    outer loop
      vertex 94.3358 127.5 2.00043
      vertex 94.3358 127.5 36.7692
      vertex 74.3358 127.5 2.00043
    endloop
  endfacet
  facet normal 0 -1 -2.23517e-08
    outer loop
      vertex 74.3358 127.5 2.00043
      vertex 94.3358 127.5 36.7692
      vertex 74.3358 127.5 46.1025
    endloop
  endfacet
  facet normal 0 -1 -2.23517e-08
    outer loop
      vertex 74.3358 127.5 46.1025
      vertex 94.3358 127.5 36.7692
      vertex 75.393 127.5 48.368
    endloop
  endfacet
  facet normal 0 -1 -2.23517e-08
    outer loop
      vertex 75.393 127.5 48.368
      vertex 94.3358 127.5 36.7692
      vertex 95.393 127.5 39.0347
    endloop
  endfacet
  facet normal 0 1 2.23517e-08
    outer loop
      vertex 131.551 82.5 19.4021
      vertex 165.967 82.5 3.34119
      vertex 131.551 82.5 2.00043
    endloop
  endfacet
  facet normal 0 1 2.23517e-08
    outer loop
      vertex 131.551 82.5 2.00043
      vertex 165.967 82.5 3.34119
      vertex 164.111 82.5 2.00043
    endloop
  endfacet
  facet normal 0 1 2.23517e-08
    outer loop
      vertex 164.111 82.5 2.00043
      vertex 165.967 82.5 3.34119
      vertex 165.121 82.5 1.52882
    endloop
  endfacet
  facet normal 0 1 2.23517e-08
    outer loop
      vertex 94.3358 82.5 2.00043
      vertex 74.3358 82.5 2.00043
      vertex 94.3358 82.5 36.7692
    endloop
  endfacet
  facet normal 0 1 2.23517e-08
    outer loop
      vertex 94.3358 82.5 36.7692
      vertex 74.3358 82.5 2.00043
      vertex 74.3358 82.5 46.1025
    endloop
  endfacet
  facet normal 0 1 2.23517e-08
    outer loop
      vertex 94.3358 82.5 36.7692
      vertex 74.3358 82.5 46.1025
      vertex 75.393 82.5 48.368
    endloop
  endfacet
  facet normal 0 1 2.23517e-08
    outer loop
      vertex 75.393 82.5 48.368
      vertex 95.393 82.5 39.0347
      vertex 94.3358 82.5 36.7692
    endloop
  endfacet
  facet normal 0 -2.23517e-08 1
    outer loop
      vertex 94.3358 127.5 2.00043
      vertex 74.3358 127.5 2.00043
      vertex 94.3358 82.5 2.00043
    endloop
  endfacet
  facet normal 0 -2.23517e-08 1
    outer loop
      vertex 94.3358 82.5 2.00043
      vertex 74.3358 127.5 2.00043
      vertex 74.3358 82.5 2.00043
    endloop
  endfacet
  facet normal -0.906183 -9.77889e-09 0.422886
    outer loop
      vertex 132.82 136.2 25.4312
      vertex 132.82 139.8 25.4312
      vertex 131.551 136.2 22.7127
    endloop
  endfacet
  facet normal -0.906183 -9.77889e-09 0.422886
    outer loop
      vertex 131.551 136.2 22.7127
      vertex 132.82 139.8 25.4312
      vertex 131.551 139.8 22.7127
    endloop
  endfacet
  facet normal 0.00404099 -2.04891e-08 0.999992
    outer loop
      vertex 94.3358 70.2 1.98428
      vertex 104.366 70.2 1.94376
      vertex 94.3358 139.8 1.98429
    endloop
  endfacet
  facet normal 0.00404099 -2.04891e-08 0.999992
    outer loop
      vertex 94.3358 139.8 1.98429
      vertex 104.366 70.2 1.94376
      vertex 104.366 139.8 1.94376
    endloop
  endfacet
  facet normal 0 -2.23517e-08 1
    outer loop
      vertex 131.551 139.8 1.94376
      vertex 104.366 139.8 1.94376
      vertex 131.551 70.2 1.94376
    endloop
  endfacet
  facet normal 0 -2.23517e-08 1
    outer loop
      vertex 131.551 70.2 1.94376
      vertex 104.366 139.8 1.94376
      vertex 104.366 70.2 1.94376
    endloop
  endfacet
  facet normal 0 -1 -2.23517e-08
    outer loop
      vertex 104.366 70.2 1.94376
      vertex 94.3358 70.2 1.98428
      vertex 74.3358 70.2 0.000427246
    endloop
  endfacet
  facet normal 0 -1 -2.23517e-08
    outer loop
      vertex 74.3358 70.2 0.000427246
      vertex 94.3358 70.2 1.98428
      vertex 94.3358 70.2 40.0798
    endloop
  endfacet
  facet normal 0 -1 -2.23517e-08
    outer loop
      vertex 74.3358 70.2 0.000427246
      vertex 94.3358 70.2 40.0798
      vertex 74.3358 70.2 46.1025
    endloop
  endfacet
  facet normal 0 -1 -2.23517e-08
    outer loop
      vertex 74.3358 70.2 46.1025
      vertex 94.3358 70.2 40.0798
      vertex 97.296 70.2 46.4231
    endloop
  endfacet
  facet normal 0 -1 -2.23517e-08
    outer loop
      vertex 74.3358 70.2 46.1025
      vertex 97.296 70.2 46.4231
      vertex 78.5646 70.2 55.1644
    endloop
  endfacet
  facet normal 0 -1 -2.23517e-08
    outer loop
      vertex 104.366 70.2 1.94376
      vertex 74.3358 70.2 0.000427246
      vertex 131.551 70.2 1.94376
    endloop
  endfacet
  facet normal 0 -1 -2.23517e-08
    outer loop
      vertex 131.551 70.2 1.94376
      vertex 74.3358 70.2 0.000427246
      vertex 173.126 70.2 0.000427246
    endloop
  endfacet
  facet normal -3.20972e-08 -1 -7.09668e-07
    outer loop
      vertex 131.551 70.2 1.94376
      vertex 173.126 70.2 0.000427246
      vertex 175.664 70.2 5.43709
    endloop
  endfacet
  facet normal -0.00340988 -0.999993 0.00159126
    outer loop
      vertex 175.664 70.2 5.43709
      vertex 173.126 70.2 0.000427246
      vertex 173.127 70.2 0
    endloop
  endfacet
  facet normal -7.31132e-08 -1 1.11759e-08
    outer loop
      vertex 132.82 70.2 25.4312
      vertex 131.551 70.2 22.7127
      vertex 175.664 70.2 5.43709
    endloop
  endfacet
  facet normal -8.64751e-08 -1 -2.23517e-08
    outer loop
      vertex 175.664 70.2 5.43709
      vertex 131.551 70.2 22.7127
      vertex 131.551 70.2 1.94376
    endloop
  endfacet
  facet normal -0.906183 -1.02445e-08 0.422885
    outer loop
      vertex 78.5646 73.3 55.1644
      vertex 75.393 73.3 48.368
      vertex 78.5646 70.2 55.1644
    endloop
  endfacet
  facet normal -0.906183 7.27363e-07 0.422885
    outer loop
      vertex 78.5646 70.2 55.1644
      vertex 75.393 73.3 48.368
      vertex 74.3358 70.2 46.1025
    endloop
  endfacet
  facet normal -0.906183 -9.77889e-09 0.422886
    outer loop
      vertex 74.3358 70.2 46.1025
      vertex 75.393 73.3 48.368
      vertex 74.3358 82.5 46.1025
    endloop
  endfacet
  facet normal -0.906183 -1.02445e-08 0.422886
    outer loop
      vertex 74.3358 82.5 46.1025
      vertex 75.393 73.3 48.368
      vertex 75.393 82.5 48.368
    endloop
  endfacet
  facet normal 0.906183 9.77889e-09 -0.422886
    outer loop
      vertex 172.946 139.798 6.70576
      vertex 170.408 139.798 1.26865
      vertex 172.946 139.8 6.70576
    endloop
  endfacet
  facet normal 0.906183 9.77889e-09 -0.422886
    outer loop
      vertex 172.946 139.8 6.70576
      vertex 170.408 139.798 1.26865
      vertex 170.408 139.8 1.26865
    endloop
  endfacet
  facet normal -0.906183 -9.77889e-09 0.422885
    outer loop
      vertex 78.5646 136.2 55.1644
      vertex 78.5646 139.8 55.1644
      vertex 75.393 136.2 48.368
    endloop
  endfacet
  facet normal -0.906183 -6.06291e-07 0.422885
    outer loop
      vertex 75.393 136.2 48.368
      vertex 78.5646 139.8 55.1644
      vertex 74.3358 139.8 46.1025
    endloop
  endfacet
  facet normal -0.906183 -9.77889e-09 0.422886
    outer loop
      vertex 75.393 136.2 48.368
      vertex 74.3358 139.8 46.1025
      vertex 74.3358 127.5 46.1025
    endloop
  endfacet
  facet normal -0.906183 -9.77889e-09 0.422886
    outer loop
      vertex 74.3358 127.5 46.1025
      vertex 75.393 127.5 48.368
      vertex 75.393 136.2 48.368
    endloop
  endfacet
  facet normal 0.422885 -2.04891e-08 0.906183
    outer loop
      vertex 170.408 139.798 1.26865
      vertex 173.126 139.798 0.000434875
      vertex 170.408 139.8 1.26865
    endloop
  endfacet
  facet normal 0.422885 -2.04891e-08 0.906183
    outer loop
      vertex 170.408 139.8 1.26865
      vertex 173.126 139.798 0.000434875
      vertex 173.126 139.8 0.000434875
    endloop
  endfacet
  facet normal 0.906183 9.77889e-09 -0.422885
    outer loop
      vertex 173.127 70.2 0
      vertex 173.127 139.798 7.62939e-06
      vertex 175.664 70.2 5.43709
    endloop
  endfacet
  facet normal 0.906183 9.77889e-09 -0.422885
    outer loop
      vertex 175.664 70.2 5.43709
      vertex 173.127 139.798 7.62939e-06
      vertex 175.664 139.798 5.4371
    endloop
  endfacet
  facet normal 0 1 2.23517e-08
    outer loop
      vertex 170.408 139.798 1.26865
      vertex 172.946 139.798 6.70576
      vertex 173.126 139.798 0.000434875
    endloop
  endfacet
  facet normal 0 1 2.23517e-08
    outer loop
      vertex 173.126 139.798 0.000434875
      vertex 172.946 139.798 6.70576
      vertex 175.664 139.798 5.4371
    endloop
  endfacet
  facet normal 0 1 2.23517e-08
    outer loop
      vertex 173.126 139.798 0.000434875
      vertex 175.664 139.798 5.4371
      vertex 173.127 139.798 7.62939e-06
    endloop
  endfacet
  facet normal -0.421443 2.04891e-08 -0.906855
    outer loop
      vertex 173.126 70.2 0.000427246
      vertex 173.126 139.798 0.000434875
      vertex 173.127 70.2 0
    endloop
  endfacet
  facet normal -0.421443 2.04891e-08 -0.906855
    outer loop
      vertex 173.127 70.2 0
      vertex 173.126 139.798 0.000434875
      vertex 173.127 139.798 7.62939e-06
    endloop
  endfacet
  facet normal 0 1 2.23517e-08
    outer loop
      vertex 94.3358 139.8 40.0798
      vertex 94.3358 139.8 1.98429
      vertex 74.3358 139.8 0.000434875
    endloop
  endfacet
  facet normal 0 1 2.23517e-08
    outer loop
      vertex 74.3358 139.8 0.000434875
      vertex 94.3358 139.8 1.98429
      vertex 104.366 139.8 1.94376
    endloop
  endfacet
  facet normal 0 1 2.23517e-08
    outer loop
      vertex 74.3358 139.8 0.000434875
      vertex 104.366 139.8 1.94376
      vertex 131.551 139.8 1.94376
    endloop
  endfacet
  facet normal 0 1 2.23517e-08
    outer loop
      vertex 131.551 139.8 22.7127
      vertex 172.946 139.8 6.70576
      vertex 131.551 139.8 1.94376
    endloop
  endfacet
  facet normal 0 1 2.23517e-08
    outer loop
      vertex 131.551 139.8 1.94376
      vertex 172.946 139.8 6.70576
      vertex 170.408 139.8 1.26865
    endloop
  endfacet
  facet normal 0 1 2.23517e-08
    outer loop
      vertex 131.551 139.8 1.94376
      vertex 170.408 139.8 1.26865
      vertex 173.126 139.8 0.000434875
    endloop
  endfacet
  facet normal 0 1 2.23517e-08
    outer loop
      vertex 131.551 139.8 22.7127
      vertex 132.82 139.8 25.4312
      vertex 172.946 139.8 6.70576
    endloop
  endfacet
  facet normal 0 1 2.23517e-08
    outer loop
      vertex 173.126 139.8 0.000434875
      vertex 74.3358 139.8 0.000434875
      vertex 131.551 139.8 1.94376
    endloop
  endfacet
  facet normal 0 1 2.23517e-08
    outer loop
      vertex 74.3358 139.8 0.000434875
      vertex 74.3358 139.8 46.1025
      vertex 94.3358 139.8 40.0798
    endloop
  endfacet
  facet normal 0 1 2.23517e-08
    outer loop
      vertex 94.3358 139.8 40.0798
      vertex 74.3358 139.8 46.1025
      vertex 97.296 139.8 46.4231
    endloop
  endfacet
  facet normal 0 1 2.23517e-08
    outer loop
      vertex 97.296 139.8 46.4231
      vertex 74.3358 139.8 46.1025
      vertex 78.5646 139.8 55.1644
    endloop
  endfacet
  facet normal 0 2.23517e-08 -1
    outer loop
      vertex 173.126 139.8 0.000434875
      vertex 173.126 139.798 0.000434875
      vertex 74.3358 139.8 0.000434875
    endloop
  endfacet
  facet normal 0 2.23517e-08 -1
    outer loop
      vertex 74.3358 139.8 0.000434875
      vertex 173.126 139.798 0.000434875
      vertex 74.3358 70.2 0.000427246
    endloop
  endfacet
  facet normal 0 2.23517e-08 -1
    outer loop
      vertex 74.3358 70.2 0.000427246
      vertex 173.126 139.798 0.000434875
      vertex 173.126 70.2 0.000427246
    endloop
  endfacet
  facet normal -1 0 0
    outer loop
      vertex 74.3358 127.5 46.1025
      vertex 74.3358 139.8 46.1025
      vertex 74.3358 127.5 2.00043
    endloop
  endfacet
  facet normal -1 0 0
    outer loop
      vertex 74.3358 127.5 2.00043
      vertex 74.3358 139.8 46.1025
      vertex 74.3358 139.8 0.000434875
    endloop
  endfacet
  facet normal -1 0 0
    outer loop
      vertex 74.3358 127.5 2.00043
      vertex 74.3358 139.8 0.000434875
      vertex 74.3358 70.2 0.000427246
    endloop
  endfacet
  facet normal -1 0 0
    outer loop
      vertex 74.3358 127.5 2.00043
      vertex 74.3358 70.2 0.000427246
      vertex 74.3358 82.5 2.00043
    endloop
  endfacet
  facet normal -1 0 0
    outer loop
      vertex 74.3358 82.5 2.00043
      vertex 74.3358 70.2 0.000427246
      vertex 74.3358 70.2 46.1025
    endloop
  endfacet
  facet normal -1 0 0
    outer loop
      vertex 74.3358 82.5 2.00043
      vertex 74.3358 70.2 46.1025
      vertex 74.3358 82.5 46.1025
    endloop
  endfacet
endsolid MacroPad_Top_v3.stl
